<svg width="48" height="48" viewBox="0 0 48 48" fill="none" xmlns="http://www.w3.org/2000/svg">
<path d="M24 6C13 6 4 13.16 4 22C4.05022 24.1254 4.56925 26.2135 5.52002 28.115C6.47079 30.0165 7.82982 31.6846 9.5 33C9.5 34.2 8.66 37.34 4 42C8.74 41.78 13.28 40 16.94 37C19.22 37.66 21.62 38 24 38C35 38 44 30.84 44 22C44 13.16 35 6 24 6ZM24 34C15.16 34 8 28.62 8 22C8 15.38 15.16 10 24 10C32.84 10 40 15.38 40 22C40 28.62 32.84 34 24 34ZM34 24V20H30V24H34ZM26 24V20H22V24H26ZM18 24V20H14V24H18Z" fill="white"/>
</svg>
