<svg width="97" height="97" viewBox="0 0 97 97" fill="none" xmlns="http://www.w3.org/2000/svg">
<g clip-path="url(#clip0_1769_3176)">
<g clip-path="url(#clip1_1769_3176)">
<path d="M17.8902 81.953L11.082 5.5625H85.9175L79.1003 81.9409L48.4543 90.4375L17.8902 81.953Z" fill="#1572B6"/>
<path d="M48.5 83.9442L73.2653 77.0785L79.0914 11.8096H48.5V83.9442Z" fill="#33A9DC"/>
<path d="M48.5 39.485H60.8978L61.7526 29.8911H48.5V20.5215H71.9922L71.7679 23.0344L69.4672 48.8546H48.5V39.485Z" fill="white"/>
<path d="M48.5567 63.8171L48.5142 63.8292L38.0807 61.0101L37.4138 53.5381H28.0078L29.3203 68.2487L48.5112 73.5777L48.5567 73.5656V63.8171Z" fill="#EBEBEB"/>
<path d="M60.0998 48.458L58.9722 61.0044L48.5234 63.8234V73.5719L67.7294 68.249L67.8719 66.6667L69.4997 48.458H60.0998Z" fill="white"/>
<path d="M48.5335 20.5215V29.8911H25.9022L25.7142 27.7844L25.2868 23.0344L25.0625 20.5215H48.5335ZM48.5001 39.485V48.8546H38.1969L38.009 46.7479L37.5846 41.9979L37.3603 39.485H48.5001Z" fill="#EBEBEB"/>
<path d="M17.8893 81.953L11.0781 5.5625H85.9197L79.0994 81.9409L48.4534 90.4375L17.8893 81.953Z" fill="#E44F26"/>
<path d="M48.5 83.9442L73.2653 77.0785L79.0914 11.8096H48.5V83.9442Z" fill="#F1662A"/>
<path d="M48.5 40.1403H36.1022L35.2474 30.5464H48.5V21.1768H25.0078L25.2321 23.6927L27.5328 49.5098H48.5V40.1403ZM48.5 64.4721L48.4576 64.4842L38.024 61.6682L37.3571 54.1962H27.9512L29.2637 68.9038L48.4576 74.2327L48.5 74.2206V64.4721Z" fill="#EBEBEB"/>
<path d="M48.4648 40.1403V49.5098H60.0018L58.9166 61.6621L48.4648 64.4812V74.2297L67.6739 68.9038L67.8133 67.3215L70.014 42.6562L70.2444 40.1403H48.4648ZM48.4648 21.1768V30.5464H71.0962L71.2841 28.4427L71.7115 23.6927L71.9358 21.1768H48.4648Z" fill="white"/>
</g>
</g>
<defs>
<clipPath id="clip0_1769_3176">
<rect width="97" height="97" fill="white"/>
</clipPath>
<clipPath id="clip1_1769_3176">
<rect width="97" height="97" fill="white" transform="translate(0 -0.5)"/>
</clipPath>
</defs>
</svg>
