<svg width="97" height="97" viewBox="0 0 97 97" fill="none" xmlns="http://www.w3.org/2000/svg">
<g clip-path="url(#clip0_1769_3189)">
<g clip-path="url(#clip1_1769_3189)">
<path d="M17.8902 81.953L11.082 5.5625H85.9175L79.1003 81.9409L48.4543 90.4375L17.8902 81.953Z" fill="#1572B6"/>
<path d="M48.5 83.9442L73.2653 77.0785L79.0914 11.8096H48.5V83.9442Z" fill="#33A9DC"/>
<path d="M48.5 39.485H60.8978L61.7526 29.8911H48.5V20.5215H71.9922L71.7679 23.0344L69.4672 48.8546H48.5V39.485Z" fill="white"/>
<path d="M48.5567 63.8171L48.5142 63.8292L38.0807 61.0101L37.4138 53.5381H28.0078L29.3203 68.2487L48.5112 73.5777L48.5567 73.5656V63.8171Z" fill="#EBEBEB"/>
<path d="M60.0998 48.458L58.9722 61.0044L48.5234 63.8234V73.5719L67.7294 68.249L67.8719 66.6667L69.4997 48.458H60.0998Z" fill="white"/>
<path d="M48.5335 20.5215V29.8911H25.9022L25.7142 27.7844L25.2868 23.0344L25.0625 20.5215H48.5335ZM48.5001 39.485V48.8546H38.1969L38.009 46.7479L37.5846 41.9979L37.3603 39.485H48.5001Z" fill="#EBEBEB"/>
<path d="M17.8893 81.953L11.0781 5.5625H85.9197L79.0994 81.9409L48.4534 90.4375L17.8893 81.953Z" fill="#E44F26"/>
<path d="M48.5 83.9442L73.2653 77.0785L79.0914 11.8096H48.5V83.9442Z" fill="#F1662A"/>
<path d="M48.5 40.1403H36.1022L35.2474 30.5464H48.5V21.1768H25.0078L25.2321 23.6927L27.5328 49.5098H48.5V40.1403ZM48.5 64.4721L48.4576 64.4842L38.024 61.6682L37.3571 54.1962H27.9512L29.2637 68.9038L48.4576 74.2327L48.5 74.2206V64.4721Z" fill="#EBEBEB"/>
<path d="M48.4648 40.1403V49.5098H60.0018L58.9166 61.6621L48.4648 64.4812V74.2297L67.6739 68.9038L67.8133 67.3215L70.014 42.6562L70.2444 40.1403H48.4648ZM48.4648 21.1768V30.5464H71.0962L71.2841 28.4427L71.7115 23.6927L71.9358 21.1768H48.4648Z" fill="white"/>
<g clip-path="url(#clip2_1769_3189)">
<path d="M74.2656 -0.5H22.7344C10.1785 -0.5 0 9.67853 0 22.2344V73.7656C0 86.3215 10.1785 96.5 22.7344 96.5H74.2656C86.8215 96.5 97 86.3215 97 73.7656V22.2344C97 9.67853 86.8215 -0.5 74.2656 -0.5Z" fill="#242938"/>
<path fill-rule="evenodd" clip-rule="evenodd" d="M81.7854 29.1734C81.8096 29.2655 81.8225 29.3606 81.8225 29.4564V44.3092C81.8225 44.4998 81.7729 44.6869 81.6789 44.8518C81.5852 45.0163 81.4496 45.1532 81.286 45.2485L68.992 52.4257V66.6518C68.9925 66.8413 68.9436 67.0277 68.8499 67.1925C68.7563 67.3573 68.6212 67.4949 68.4581 67.5914L42.7956 82.5715C42.7368 82.6052 42.6728 82.6268 42.6088 82.6499C42.5845 82.6583 42.5622 82.673 42.5368 82.6799C42.3574 82.7276 42.1686 82.7276 41.9893 82.6799C41.9601 82.6715 41.9332 82.6553 41.9051 82.6446C41.8464 82.623 41.785 82.6041 41.7289 82.5715L16.0717 67.5914C15.9083 67.4959 15.7729 67.3591 15.6791 67.1947C15.5848 67.0293 15.5352 66.8422 15.5352 66.6518V22.0935C15.5352 21.9958 15.5484 21.901 15.5727 21.8093C15.5802 21.7779 15.5992 21.7495 15.6098 21.7184C15.6299 21.6616 15.6484 21.6036 15.678 21.5506C15.6981 21.5153 15.7273 21.4869 15.7515 21.4547C15.7818 21.4111 15.8102 21.3664 15.8462 21.3285C15.8766 21.2974 15.9171 21.2743 15.9516 21.2474C15.9902 21.2148 16.0251 21.1796 16.069 21.1538H16.0706L28.8992 13.664C29.0613 13.5694 29.2456 13.5195 29.4332 13.5195C29.6209 13.5195 29.8052 13.5694 29.9673 13.664L42.7967 21.1538H42.7994C42.8418 21.1811 42.8782 21.2148 42.9168 21.2459C42.9513 21.2732 42.9899 21.2974 43.0206 21.3274C43.0581 21.3664 43.085 21.4111 43.1169 21.4547C43.1396 21.4869 43.1703 21.5153 43.1889 21.5506C43.2196 21.6047 43.237 21.6616 43.2586 21.7184C43.2692 21.7495 43.2878 21.7779 43.2957 21.8105C43.3203 21.9029 43.3329 21.998 43.3332 22.0935V49.9242L54.0237 43.6825V29.4545C54.0237 29.3598 54.037 29.2639 54.0612 29.1734C54.0707 29.1408 54.0877 29.1124 54.0987 29.0813C54.1199 29.0245 54.1385 28.9661 54.1681 28.9135C54.1881 28.8782 54.2173 28.8498 54.24 28.8172C54.2723 28.774 54.2988 28.7293 54.3363 28.6914C54.367 28.6603 54.4056 28.6372 54.4405 28.61C54.4803 28.5777 54.5151 28.5425 54.558 28.5167H54.5595L67.39 21.0265C67.5519 20.9317 67.7362 20.8817 67.9239 20.8817C68.1115 20.8817 68.2958 20.9317 68.4577 21.0265L81.2871 28.5167C81.3326 28.544 81.3671 28.5774 81.4072 28.6088C81.4406 28.6357 81.4792 28.6603 81.5099 28.6899C81.5474 28.7293 81.574 28.774 81.6062 28.8172C81.63 28.8498 81.6596 28.8778 81.6782 28.9135C81.7089 28.9665 81.7263 29.0245 81.7475 29.0813C81.7596 29.1124 81.7774 29.1408 81.7854 29.1734ZM79.684 43.6825V31.3313L75.1943 33.9518L68.992 37.573V49.9242L79.6851 43.6825H79.684ZM66.8546 66.0251V53.6659L60.7538 57.1992L43.3321 67.2815V79.757L66.8546 66.0251ZM17.6737 23.9684V66.0251L41.1936 79.7559V67.2826L28.9064 60.2312L28.9026 60.2285L28.8969 60.2259C28.8556 60.2016 28.8211 60.1664 28.7821 60.1365C28.7488 60.1096 28.7101 60.088 28.6809 60.058L28.6783 60.0542C28.6434 60.0201 28.6192 59.9785 28.59 59.9402C28.5635 59.9038 28.5313 59.8727 28.51 59.8349L28.5085 59.8307C28.4843 59.7901 28.4695 59.7413 28.4524 59.6954C28.435 59.6549 28.4123 59.617 28.4017 59.5734V59.5719C28.3884 59.5207 28.3858 59.4666 28.3801 59.4135C28.3748 59.373 28.3642 59.3324 28.3642 59.2919V30.2105L22.1634 26.5877L17.6737 23.9695V23.9684ZM29.435 15.8541L18.746 22.0939L29.4323 28.333L40.1201 22.0924L29.4323 15.8545L29.435 15.8541ZM34.9939 54.792L41.1951 51.1723V23.9684L36.705 26.5892L30.5031 30.2101V57.4144L34.9939 54.792ZM67.9242 23.217L57.2361 29.4564L67.9242 35.6955L78.6105 29.4549L67.9242 23.217ZM66.8546 37.573L60.6523 33.9518L56.163 31.3313V43.6825L62.3638 47.3022L66.8546 49.9242V37.573ZM42.2617 65.4067L57.9382 56.3311L65.7747 51.7964L55.0949 45.5611L42.7982 52.7398L31.5909 59.2824L42.2617 65.4067Z" fill="#FF2D20"/>
</g>
</g>
</g>
<defs>
<clipPath id="clip0_1769_3189">
<rect width="97" height="97" fill="white"/>
</clipPath>
<clipPath id="clip1_1769_3189">
<rect width="97" height="97" fill="white" transform="translate(0 -0.5)"/>
</clipPath>
<clipPath id="clip2_1769_3189">
<rect width="97" height="97" fill="white" transform="translate(0 -0.5)"/>
</clipPath>
</defs>
</svg>
