<svg width="97" height="97" viewBox="0 0 97 97" fill="none" xmlns="http://www.w3.org/2000/svg">
<g clip-path="url(#clip0_1769_3161)">
<path d="M74.2656 0H22.7344C10.1785 0 0 10.1785 0 22.7344V74.2656C0 86.8215 10.1785 97 22.7344 97H74.2656C86.8215 97 97 86.8215 97 74.2656V22.7344C97 10.1785 86.8215 0 74.2656 0Z" fill="#242938"/>
<mask id="mask0_1769_3161" style="mask-type:luminance" maskUnits="userSpaceOnUse" x="23" y="10" width="51" height="77">
<path d="M23.1133 10.6094H73.6442V86.3906H23.1133V10.6094Z" fill="white"/>
</mask>
<g mask="url(#mask0_1769_3161)">
<path d="M35.7476 86.3904C42.7195 86.3904 48.3777 80.7322 48.3777 73.7603V61.1299H35.7476C28.7758 61.1299 23.1172 66.7885 23.1172 73.7603C23.1172 80.7322 28.7758 86.3904 35.7476 86.3904Z" fill="#0ACF83"/>
<path d="M23.1172 48.5002C23.1172 41.5283 28.7758 35.8701 35.7476 35.8701H48.3777V61.1303H35.7476C28.7758 61.1303 23.1172 55.4721 23.1172 48.5002Z" fill="#A259FF"/>
<path d="M23.1172 23.2395C23.1172 16.2676 28.7758 10.6094 35.7476 10.6094H48.3777V35.8699H35.7476C28.7758 35.8699 23.1172 30.2113 23.1172 23.2395Z" fill="#F24E1E"/>
<path d="M48.3789 10.6094H61.009C67.9809 10.6094 73.6395 16.2676 73.6395 23.2395C73.6395 30.2113 67.9809 35.8699 61.009 35.8699H48.3789V10.6094Z" fill="#FF7262"/>
<path d="M73.6395 48.5002C73.6395 55.4721 67.9809 61.1303 61.009 61.1303C54.0371 61.1303 48.3789 55.4721 48.3789 48.5002C48.3789 41.5283 54.0371 35.8701 61.009 35.8701C67.9809 35.8701 73.6395 41.5283 73.6395 48.5002Z" fill="#1ABCFE"/>
</g>
<g clip-path="url(#clip1_1769_3161)">
<path d="M80.8965 -0.5H16.1035C7.20979 -0.5 0 6.88282 0 15.99V79.8548C0 88.962 7.20979 96.3448 16.1035 96.3448H80.8965C89.7902 96.3448 97 88.962 97 79.8548V15.99C97 6.88282 89.7902 -0.5 80.8965 -0.5Z" fill="#470137"/>
<path d="M50.9914 24.9679L38.888 45.4244L51.8371 67.1466C51.9205 67.2987 51.9436 67.4772 51.9023 67.6463C51.8822 67.7185 51.839 67.7364 51.7727 67.7391L51.6992 67.7379L51.6098 67.7356C51.5613 67.7356 51.5071 67.7379 51.4468 67.748H42.1106L41.9272 67.7449C41.424 67.7313 41.0614 67.6576 40.8405 67.2797C39.9766 65.5564 39.1089 63.8351 38.2374 62.1158C37.4578 60.5823 36.657 59.0603 35.8351 57.5502L35.4721 56.8852C34.4892 55.0962 33.5239 53.2971 32.5765 51.4881H32.5114C31.6365 53.2782 30.7362 55.0551 29.8109 56.8184C28.8776 58.5955 27.9558 60.3616 27.0453 62.1158C26.1342 63.8713 25.2015 65.615 24.2474 67.3464C24.094 67.6995 23.839 67.7732 23.4839 67.7852L23.3361 67.7876H14.4216L14.383 67.7887L14.2557 67.8004C14.1848 67.8046 14.1424 67.7891 14.1287 67.6797C14.1043 67.5172 14.1391 67.3512 14.2265 67.2133L26.7849 46.0906L14.5516 24.9019C14.4216 24.725 14.4 24.5807 14.4864 24.4689C14.5344 24.412 14.5947 24.3673 14.6625 24.3383C14.7303 24.3094 14.8038 24.297 14.8771 24.3021H24.0519C24.252 24.2909 24.452 24.325 24.6377 24.4022C24.793 24.4926 24.9268 24.6179 25.028 24.7688C25.8089 26.5459 26.6766 28.3229 27.631 30.0992C28.5781 31.8643 29.5434 33.619 30.5266 35.3632C31.4949 37.0803 32.3957 38.8364 33.2271 40.6272H33.2923C34.1443 38.8368 35.0228 37.0598 35.9276 35.2968C36.8161 33.5644 37.7274 31.8204 38.6602 30.0658C39.5813 28.3338 40.4815 26.5903 41.3607 24.8356C41.4107 24.6711 41.5002 24.5221 41.621 24.4022C41.7818 24.3189 41.9623 24.2841 42.1416 24.3021H50.6659C50.7443 24.2821 50.8269 24.2887 50.9013 24.3209C50.9756 24.3531 51.0378 24.4091 51.0784 24.4806C51.119 24.5521 51.1358 24.6352 51.1264 24.7173C51.1169 24.7995 51.0816 24.8762 51.0259 24.9361L50.9918 24.9687L50.9914 24.9679ZM70.1148 68.6074L69.6661 68.6125C66.671 68.6592 63.7034 68.0219 60.979 66.747C58.441 65.5441 56.3194 63.5807 54.8949 61.1163C53.4584 58.6735 52.7211 55.6292 52.6839 51.9847L52.6824 51.6879C52.6581 48.6297 53.4213 45.619 54.8952 42.9591C56.3704 40.3264 58.5209 38.1572 61.1139 36.6867L61.337 36.5625C64.1561 34.9632 67.5617 34.1635 71.5531 34.1635L71.7274 34.1654L71.9267 34.172L72.1503 34.1821L72.3988 34.1969L72.8164 34.2271L73.2892 34.2659L73.6352 34.297V21.1701C73.6352 20.8597 73.7655 20.7038 74.0255 20.7038H82.2246C82.2776 20.696 82.3317 20.701 82.3825 20.7183C82.4333 20.7356 82.4795 20.7648 82.5174 20.8036C82.5553 20.8424 82.5838 20.8897 82.6007 20.9417C82.6176 20.9938 82.6225 21.0491 82.6149 21.1034V60.4835C82.6149 61.1446 82.6399 61.857 82.6899 62.619L82.8112 64.3476L82.8756 65.3474C82.8836 65.4859 82.8506 65.6236 82.7809 65.7426C82.7112 65.8615 82.608 65.9561 82.4849 66.014C80.3697 66.9173 78.1666 67.5872 75.9128 68.0126C73.9994 68.3742 72.0602 68.5732 70.1148 68.6074ZM73.6352 60.35V42.1594C73.2835 42.0619 72.9244 41.995 72.5617 41.9596C72.1185 41.9139 71.6732 41.8916 71.2276 41.8928C69.6486 41.8768 68.0882 42.2421 66.6728 42.9591C65.2942 43.6608 64.117 44.717 63.2566 46.0243C62.3976 47.3109 61.9531 48.9909 61.924 51.0644L61.9224 51.2883C61.8908 52.7407 62.1224 54.1865 62.6056 55.5524C62.999 56.6532 63.6208 57.6535 64.4281 58.4845C65.2008 59.2489 66.1363 59.8191 67.1608 60.1502C68.2431 60.5091 69.3743 60.6891 70.5119 60.6837C71.1189 60.6837 71.6827 60.6612 72.2037 60.6166C72.6192 60.5846 73.0311 60.5144 73.4344 60.407L73.6352 60.35Z" fill="#FF61F6"/>
</g>
</g>
<defs>
<clipPath id="clip0_1769_3161">
<rect width="97" height="97" fill="white"/>
</clipPath>
<clipPath id="clip1_1769_3161">
<rect width="97" height="97" fill="white" transform="translate(0 -0.5)"/>
</clipPath>
</defs>
</svg>
