<svg width="97" height="97" viewBox="0 0 97 97" fill="none" xmlns="http://www.w3.org/2000/svg">
<g clip-path="url(#clip0_1769_3206)">
<g clip-path="url(#clip1_1769_3206)">
<path d="M80.7057 -0.5H14.4637C5.37103 -0.5 -2 6.88282 -2 15.99V79.8548C-2 88.962 5.37103 96.3448 14.4637 96.3448H80.7057C89.7983 96.3448 97.1693 88.962 97.1693 79.8548V15.99C97.1693 6.88282 89.7983 -0.5 80.7057 -0.5Z" fill="#001E36"/>
<path d="M20.332 67.4135V24.8351C20.332 24.5247 20.4653 24.3688 20.7314 24.3688L21.1525 24.3676L21.8723 24.3598L22.8725 24.3401L26.2233 24.269L29.8163 24.2023C31.0799 24.1806 32.3327 24.1689 33.5746 24.1689C36.9448 24.1689 39.7832 24.5911 42.09 25.435C44.1709 26.14 46.0686 27.3008 47.6451 28.8331C48.9814 30.1613 50.0142 31.7642 50.672 33.531C51.2944 35.2503 51.6097 37.0659 51.6037 38.8947C51.6037 42.4492 50.7828 45.3809 49.1419 47.6903C47.5369 49.9433 45.2982 51.6663 42.7114 52.6396L42.4894 52.7211C39.7882 53.7303 36.7969 54.095 33.5161 54.1179L33.0063 54.1194L32.2498 54.1156L31.8682 54.1101L31.4429 54.1L31.1864 54.09L31.0307 54.0818L30.6476 54.0678L30.1792 54.0581L29.4742 54.0531L29.3173 54.0527V67.3468C29.329 67.4282 29.3215 67.5113 29.2956 67.5894C29.2696 67.6675 29.2258 67.7385 29.1677 67.7967C29.1096 67.8549 29.0387 67.8988 28.9607 67.9248C28.8827 67.9508 28.7998 67.9583 28.7184 67.9466H20.798C20.487 67.9466 20.332 67.7697 20.332 67.4135ZM29.3177 32.3647V46.252C29.8486 46.2949 30.381 46.3171 30.9137 46.3187H33.1094C34.6232 46.3136 36.1282 46.0879 37.577 45.6486L37.866 45.5582C39.1841 45.1661 40.3619 44.4027 41.2591 43.359C42.0927 42.3743 42.5247 41.0175 42.5545 39.2881L42.5564 39.0945C42.5913 37.8056 42.2566 36.5337 41.5915 35.4299C40.8924 34.3623 39.882 33.5363 38.6977 33.0642C37.1513 32.4622 35.4994 32.179 33.8411 32.2316L32.9974 32.2339L32.4652 32.2386L31.9573 32.2452L31.2407 32.2591L30.7177 32.2739L30.4461 32.284L30.0832 32.301L29.774 32.32L29.5978 32.334L29.4455 32.3488L29.3785 32.3565L29.3177 32.3647ZM77.3257 43.7269C76.1652 43.1295 74.9343 42.6809 73.6619 42.3914L73.3675 42.3277C71.9677 42.006 70.5387 41.8288 69.1028 41.7989L68.7441 41.7946C67.9024 41.7718 67.0618 41.8728 66.2494 42.0945C65.7321 42.2097 65.2724 42.5047 64.9516 42.9272C64.7349 43.2652 64.6195 43.6584 64.6193 44.0602C64.6314 44.4498 64.7717 44.8244 65.0183 45.126C65.3713 45.5396 65.7958 45.8862 66.2715 46.1491L66.4156 46.2256C67.3641 46.7371 68.3414 47.1931 69.3426 47.5913C71.5753 48.34 73.7087 49.3581 75.6956 50.6232C77.0495 51.4789 78.1698 52.6582 78.9558 54.055C79.6167 55.3774 79.9477 56.8406 79.9204 58.3191C79.9602 60.2719 79.4031 62.1901 78.3236 63.8167C77.168 65.4677 75.5631 66.7511 73.6999 67.5144C71.7486 68.3734 69.3523 68.8169 66.5112 68.846L66.2161 68.8475C64.4548 68.8654 62.696 68.711 60.9647 68.3866L60.5944 68.3144C59.1367 68.0467 57.7178 67.599 56.37 66.9816C56.2346 66.9116 56.1201 66.8068 56.0383 66.678C55.9565 66.5491 55.9103 66.4009 55.9044 66.2483V58.9857C55.8964 58.9152 55.9077 58.8439 55.937 58.7793C55.9664 58.7148 56.0127 58.6594 56.071 58.6191C56.1281 58.5868 56.1937 58.5726 56.259 58.5786C56.3243 58.5845 56.3863 58.6103 56.4366 58.6524C58.0282 59.5925 59.7564 60.2781 61.559 60.6848C63.1479 61.0837 64.7777 61.2962 66.4156 61.318C67.9674 61.318 69.1094 61.1178 69.8415 60.7182C70.1722 60.5666 70.4518 60.3223 70.6466 60.0148C70.8415 59.7073 70.9432 59.3499 70.9394 58.9857C70.9394 58.4092 70.6066 57.8536 69.9415 57.3201C69.6626 57.0966 69.2624 56.8533 68.7418 56.5906L68.4927 56.468L68.227 56.3427L68.0875 56.279L67.7954 56.1495C67.7447 56.1273 67.694 56.1053 67.6432 56.0835L67.3255 55.95L67.1601 55.8821L66.8169 55.7444L66.6387 55.6745L66.2695 55.5321L65.8833 55.3874C63.7943 54.6592 61.8137 53.6505 59.9955 52.389C58.6952 51.4831 57.6245 50.2851 56.869 48.8908C56.2147 47.5778 55.884 46.1269 55.9044 44.6596C55.9007 42.8966 56.3841 41.167 57.3013 39.6622C58.3472 38.0054 59.8487 36.6862 61.6256 35.8644C63.5768 34.8878 66.0158 34.399 68.9432 34.3982C70.6578 34.3844 72.3707 34.507 74.0659 34.7648C75.2934 34.9208 76.4935 35.2459 77.6322 35.731C77.8154 35.7837 77.963 35.9191 78.0312 36.0976C78.0765 36.2602 78.0986 36.4282 78.0978 36.5974V43.3272C78.1075 43.4863 78.0312 43.6388 77.8983 43.7269C77.8093 43.7712 77.7113 43.7942 77.612 43.7942C77.5127 43.7942 77.4147 43.7712 77.3257 43.7269Z" fill="#31A8FF"/>
</g>
</g>
<defs>
<clipPath id="clip0_1769_3206">
<rect width="97" height="97" fill="white"/>
</clipPath>
<clipPath id="clip1_1769_3206">
<rect width="99.1693" height="97" fill="white" transform="translate(-2 -0.5)"/>
</clipPath>
</defs>
</svg>
