<svg width="97" height="97" viewBox="0 0 97 97" fill="none" xmlns="http://www.w3.org/2000/svg">
<g clip-path="url(#clip0_1769_3149)">
<path d="M74.2656 0H22.7344C10.1785 0 0 10.1785 0 22.7344V74.2656C0 86.8215 10.1785 97 22.7344 97H74.2656C86.8215 97 97 86.8215 97 74.2656V22.7344C97 10.1785 86.8215 0 74.2656 0Z" fill="#242938"/>
<mask id="mask0_1769_3149" style="mask-type:luminance" maskUnits="userSpaceOnUse" x="23" y="10" width="51" height="77">
<path d="M23.1133 10.6094H73.6442V86.3906H23.1133V10.6094Z" fill="white"/>
</mask>
<g mask="url(#mask0_1769_3149)">
<path d="M35.7476 86.3904C42.7195 86.3904 48.3777 80.7322 48.3777 73.7603V61.1299H35.7476C28.7758 61.1299 23.1172 66.7885 23.1172 73.7603C23.1172 80.7322 28.7758 86.3904 35.7476 86.3904Z" fill="#0ACF83"/>
<path d="M23.1172 48.5002C23.1172 41.5283 28.7758 35.8701 35.7476 35.8701H48.3777V61.1303H35.7476C28.7758 61.1303 23.1172 55.4721 23.1172 48.5002Z" fill="#A259FF"/>
<path d="M23.1172 23.2395C23.1172 16.2676 28.7758 10.6094 35.7476 10.6094H48.3777V35.8699H35.7476C28.7758 35.8699 23.1172 30.2113 23.1172 23.2395Z" fill="#F24E1E"/>
<path d="M48.3789 10.6094H61.009C67.9809 10.6094 73.6395 16.2676 73.6395 23.2395C73.6395 30.2113 67.9809 35.8699 61.009 35.8699H48.3789V10.6094Z" fill="#FF7262"/>
<path d="M73.6395 48.5002C73.6395 55.4721 67.9809 61.1303 61.009 61.1303C54.0371 61.1303 48.3789 55.4721 48.3789 48.5002C48.3789 41.5283 54.0371 35.8701 61.009 35.8701C67.9809 35.8701 73.6395 41.5283 73.6395 48.5002Z" fill="#1ABCFE"/>
</g>
</g>
<defs>
<clipPath id="clip0_1769_3149">
<rect width="97" height="97" fill="white"/>
</clipPath>
</defs>
</svg>
