<svg width="97" height="97" viewBox="0 0 97 97" fill="none" xmlns="http://www.w3.org/2000/svg">
<path d="M17.8902 82.453L11.082 6.0625H85.9175L79.1003 82.4409L48.4543 90.9375L17.8902 82.453Z" fill="#1572B6"/>
<path d="M48.5 84.4442L73.2653 77.5785L79.0914 12.3096H48.5V84.4442Z" fill="#33A9DC"/>
<path d="M48.5 39.985H60.8978L61.7526 30.3911H48.5V21.0215H71.9922L71.7679 23.5344L69.4672 49.3546H48.5V39.985Z" fill="white"/>
<path d="M48.5567 64.3171L48.5142 64.3292L38.0807 61.5101L37.4138 54.0381H28.0078L29.3203 68.7487L48.5112 74.0777L48.5567 74.0656V64.3171Z" fill="#EBEBEB"/>
<path d="M60.0998 48.958L58.9722 61.5044L48.5234 64.3234V74.0719L67.7294 68.749L67.8719 67.1667L69.4997 48.958H60.0998Z" fill="white"/>
<path d="M48.5335 21.0215V30.3911H25.9022L25.7142 28.2844L25.2868 23.5344L25.0625 21.0215H48.5335ZM48.5001 39.985V49.3546H38.1969L38.009 47.2479L37.5846 42.4979L37.3603 39.985H48.5001Z" fill="#EBEBEB"/>
</svg>
