<svg width="155" height="155" viewBox="0 0 155 155" fill="none" xmlns="http://www.w3.org/2000/svg">
<g clip-path="url(#clip0_1769_3295)">
<path d="M118.672 0H36.3281C16.2647 0 0 16.2647 0 36.3281V118.672C0 138.735 16.2647 155 36.3281 155H118.672C138.735 155 155 138.735 155 118.672V36.3281C155 16.2647 138.735 0 118.672 0Z" fill="url(#paint0_radial_1769_3295)"/>
<path d="M118.672 0H36.3281C16.2647 0 0 16.2647 0 36.3281V118.672C0 138.735 16.2647 155 36.3281 155H118.672C138.735 155 155 138.735 155 118.672V36.3281C155 16.2647 138.735 0 118.672 0Z" fill="url(#paint1_radial_1769_3295)"/>
<path d="M77.5055 16.9531C61.0621 16.9531 58.9981 17.0252 52.5402 17.3188C46.0943 17.6143 41.6944 18.6345 37.8448 20.1318C33.8621 21.6782 30.4841 23.7471 27.1189 27.1135C23.7507 30.4793 21.6818 33.8572 20.1306 37.8382C18.6291 41.6889 17.6076 46.0907 17.3176 52.5335C17.0288 58.992 16.9531 61.0567 16.9531 77.5006C16.9531 93.9445 17.0258 96.0019 17.3188 102.46C17.6155 108.906 18.6357 113.306 20.1318 117.155C21.6794 121.138 23.7483 124.516 27.1147 127.881C30.4793 131.249 33.8572 133.323 37.837 134.869C41.6896 136.367 46.0901 137.387 52.5347 137.682C58.9932 137.976 61.0555 138.048 77.4982 138.048C93.9433 138.048 96.0007 137.976 102.459 137.682C108.904 137.387 113.309 136.367 117.162 134.869C121.143 133.323 124.516 131.249 127.88 127.881C131.248 124.516 133.316 121.138 134.868 117.157C136.356 113.306 137.378 108.904 137.681 102.461C137.971 96.0031 138.047 93.9445 138.047 77.5006C138.047 61.0567 137.971 58.9932 137.681 52.5347C137.378 46.0889 136.356 41.6896 134.868 37.84C133.316 33.8572 131.248 30.4793 127.88 27.1135C124.512 23.7459 121.144 21.677 117.158 20.1324C113.298 18.6345 108.896 17.6137 102.45 17.3188C95.9916 17.0252 93.9354 16.9531 77.4867 16.9531H77.5055ZM72.0738 27.8643C73.6862 27.8619 75.485 27.8643 77.5055 27.8643C93.6721 27.8643 95.5878 27.9224 101.972 28.2124C107.875 28.4825 111.079 29.4688 113.214 30.2977C116.039 31.3948 118.054 32.7068 120.172 34.8266C122.291 36.9457 123.602 38.9637 124.702 41.7895C125.531 43.9207 126.519 47.1248 126.788 53.0282C127.078 59.411 127.141 61.3279 127.141 77.4867C127.141 93.6454 127.078 95.563 126.788 101.945C126.518 107.849 125.531 111.053 124.702 113.185C123.605 116.01 122.291 118.022 120.172 120.14C118.052 122.259 116.041 123.571 113.214 124.668C111.082 125.501 107.875 126.485 101.972 126.755C95.589 127.045 93.6721 127.108 77.5055 127.108C61.3382 127.108 59.4219 127.045 53.0397 126.755C47.1363 126.482 43.9322 125.496 41.7961 124.667C38.971 123.57 36.9524 122.258 34.8332 120.139C32.7141 118.02 31.4026 116.007 30.3025 113.18C29.4736 111.048 28.4861 107.844 28.2173 101.94C27.9272 95.5575 27.8691 93.6406 27.8691 77.4715C27.8691 61.3031 27.9272 59.3959 28.2173 53.013C28.4873 47.1097 29.4736 43.9056 30.3025 41.7713C31.4002 38.9456 32.7141 36.9275 34.8338 34.8084C36.953 32.6893 38.971 31.3772 41.7967 30.2777C43.931 29.4452 47.1363 28.4613 53.0397 28.19C58.6251 27.9375 60.7897 27.8619 72.0738 27.8491V27.8643ZM109.825 37.9175C105.814 37.9175 102.56 41.1689 102.56 45.1807C102.56 49.1919 105.814 52.4463 109.825 52.4463C113.837 52.4463 117.091 49.1919 117.091 45.1807C117.091 41.1695 113.837 37.9151 109.825 37.9151V37.9175ZM77.5055 46.4068C60.3344 46.4068 46.4122 60.3289 46.4122 77.5006C46.4122 94.6723 60.3344 108.588 77.5055 108.588C94.6771 108.588 108.594 94.6723 108.594 77.5006C108.594 60.3295 94.6759 46.4068 77.5042 46.4068H77.5055ZM77.5055 57.3179C88.6515 57.3179 97.6881 66.3533 97.6881 77.5006C97.6881 88.6467 88.6515 97.6833 77.5055 97.6833C66.3588 97.6833 57.3234 88.6467 57.3234 77.5006C57.3234 66.3533 66.3588 57.3179 77.5055 57.3179Z" fill="white"/>
</g>
<defs>
<radialGradient id="paint0_radial_1769_3295" cx="0" cy="0" r="1" gradientUnits="userSpaceOnUse" gradientTransform="translate(41.1719 166.938) rotate(-90) scale(153.617 142.875)">
<stop stop-color="#FFDD55"/>
<stop offset="0.1" stop-color="#FFDD55"/>
<stop offset="0.5" stop-color="#FF543E"/>
<stop offset="1" stop-color="#C837AB"/>
</radialGradient>
<radialGradient id="paint1_radial_1769_3295" cx="0" cy="0" r="1" gradientUnits="userSpaceOnUse" gradientTransform="translate(-25.9631 11.1654) rotate(78.681) scale(68.6674 283.049)">
<stop stop-color="#3771C8"/>
<stop offset="0.128" stop-color="#3771C8"/>
<stop offset="1" stop-color="#6600FF" stop-opacity="0"/>
</radialGradient>
<clipPath id="clip0_1769_3295">
<rect width="155" height="155" fill="white"/>
</clipPath>
</defs>
</svg>
