<svg width="64" height="57" viewBox="0 0 64 57" fill="none" xmlns="http://www.w3.org/2000/svg">
<g clip-path="url(#clip0_1769_2959)">
<path d="M14.5447 56.7192V27.5074L6.87636 19.2194L0 14.6201V51.5641C0 54.4165 1.95614 56.7192 4.3635 56.7192H14.5447Z" fill="#4285F4"/>
<path d="M49.4531 56.7199H59.6343C62.0489 56.7199 63.9978 54.4086 63.9978 51.5648V14.6211L56.2092 19.889L49.4531 27.5081V56.7199Z" fill="#34A853"/>
<path d="M14.5473 27.508L13.5039 16.0941L14.5473 5.16992L32.0009 20.6349L49.4544 5.16992L50.6216 15.5043L49.4544 27.508L32.0009 42.973L14.5473 27.508Z" fill="#EA4335"/>
<path d="M49.4531 5.16948V27.5076L63.9978 14.6203V7.74689C63.9978 1.37204 57.8382 -2.26208 53.5259 1.56106L49.4531 5.16948Z" fill="#FBBC04"/>
<path d="M0.00390625 14.6204L6.69328 20.5478L14.5486 27.5077V5.16962L10.4758 1.56119C6.15606 -2.26224 0.00390625 1.37218 0.00390625 7.74673V14.6201V14.6204Z" fill="#C5221F"/>
</g>
<defs>
<clipPath id="clip0_1769_2959">
<rect width="64" height="57" fill="white"/>
</clipPath>
</defs>
</svg>
