<svg width="64" height="64" viewBox="0 0 64 64" fill="none" xmlns="http://www.w3.org/2000/svg">
<g clip-path="url(#clip0_1769_2951)">
<path d="M54.531 54.5319H45.0483V39.6812C45.0483 36.1399 44.985 31.5812 40.1163 31.5812C35.1773 31.5812 34.4215 35.4397 34.4215 39.4234V54.5309H24.939V23.9919H34.0423V28.1654H34.1698C35.0808 26.6077 36.3972 25.3262 37.979 24.4574C39.5607 23.5887 41.3484 23.1652 43.1518 23.2322C52.763 23.2322 54.535 29.5542 54.535 37.7787L54.531 54.5319ZM14.239 19.8177C11.1998 19.8182 8.7355 17.3547 8.735 14.3154C8.7345 11.2762 11.1978 8.81191 14.237 8.81141C17.2762 8.81066 19.7405 11.2742 19.741 14.3134C19.7413 15.7729 19.1617 17.1728 18.1299 18.205C17.0981 19.2372 15.6985 19.8173 14.239 19.8177ZM18.9805 54.5322H9.48775V23.9919H18.9802V54.5319L18.9805 54.5322ZM59.2585 0.00465797H4.72275C2.14525 -0.024342 0.0315 2.04041 0 4.61791V59.3812C0.0305 61.9599 2.144 64.0267 4.7225 63.9997H59.2585C61.8425 64.0317 63.9642 61.9649 64 59.3812V4.61366C63.9632 2.03116 61.8413 -0.033342 59.2585 0.000407973" fill="#0A66C2"/>
</g>
<defs>
<clipPath id="clip0_1769_2951">
<rect width="64" height="64" fill="white"/>
</clipPath>
</defs>
</svg>
